<svg width="15" height="26" viewBox="0 0 15 26" fill="none" xmlns="http://www.w3.org/2000/svg">
<path fill-rule="evenodd" clip-rule="evenodd" d="M0.45738 0.42263C0.176513 0.693322 0.0187301 1.06041 0.0187302 1.44317C0.0187302 1.82593 0.176513 2.19301 0.45738 2.46371L11.3837 12.991L0.457381 23.5182C0.314289 23.6514 0.200153 23.8107 0.121634 23.9868C0.0431158 24.1629 0.00178627 24.3523 5.76401e-05 24.544C-0.00167099 24.7356 0.0362355 24.9257 0.111566 25.1031C0.186896 25.2805 0.298142 25.4417 0.438811 25.5772C0.57948 25.7127 0.746756 25.8199 0.930878 25.8925C1.115 25.9651 1.31228 26.0016 1.51121 25.9999C1.71014 25.9983 1.90673 25.9585 2.08952 25.8828C2.2723 25.8072 2.43762 25.6972 2.57582 25.5593L14.5614 14.0115C14.8422 13.7408 15 13.3737 15 12.991C15 12.6082 14.8422 12.2411 14.5614 11.9704L2.57582 0.42263C2.29487 0.15202 1.91387 -8.36578e-08 1.5166 -6.62927e-08C1.11933 -4.89277e-08 0.738333 0.15202 0.45738 0.42263Z" fill="white"/>
</svg>
