<svg width="53" height="30" viewBox="0 0 53 30" fill="none" xmlns="http://www.w3.org/2000/svg">
<path d="M38.0938 0H14.9062C10.9529 0 7.1614 1.56903 4.36594 4.36193C1.57048 7.15483 0 10.9428 0 14.8926C0 18.8423 1.57048 22.6303 4.36594 25.4232C7.1614 28.2161 10.9529 29.7851 14.9062 29.7851H38.0938C42.0471 29.7851 45.8386 28.2161 48.6341 25.4232C51.4295 22.6303 53 18.8423 53 14.8926C53 10.9428 51.4295 7.15483 48.6341 4.36193C45.8386 1.56903 42.0471 0 38.0938 0ZM38.0938 23.7867C36.333 23.7867 34.6119 23.2651 33.1479 22.2878C31.6839 21.3105 30.5429 19.9214 29.8691 18.2962C29.1953 16.671 29.019 14.8827 29.3625 13.1574C29.706 11.4321 30.5538 9.84731 31.7988 8.60343C33.0439 7.35956 34.6301 6.51248 36.357 6.16929C38.0839 5.82611 39.8738 6.00224 41.5005 6.67542C43.1272 7.3486 44.5176 8.48859 45.4958 9.95123C46.474 11.4139 46.9961 13.1335 46.9961 14.8926C46.9977 16.061 46.7686 17.2183 46.3218 18.2981C45.875 19.378 45.2193 20.3591 44.3923 21.1853C43.5653 22.0116 42.5833 22.6666 41.5025 23.113C40.4216 23.5594 39.2633 23.7884 38.0938 23.7867Z" fill="#4C4C4C"/>
</svg>
